<svg width="20" height="22" viewBox="0 0 20 22" fill="none" xmlns="http://www.w3.org/2000/svg">
<path d="M13 20.4923V12.4346C13 12.1674 12.8946 11.9113 12.7071 11.7224C12.5196 11.5335 12.2652 11.4274 12 11.4274H8C7.73478 11.4274 7.48043 11.5335 7.29289 11.7224C7.10536 11.9113 7 12.1674 7 12.4346V20.4923M1 9.41294C0.99993 9.11991 1.06333 8.83039 1.18579 8.56458C1.30824 8.29878 1.4868 8.06307 1.709 7.87392L8.709 1.83166C9.06999 1.52437 9.52736 1.35577 10 1.35577C10.4726 1.35577 10.93 1.52437 11.291 1.83166L18.291 7.87392C18.5132 8.06307 18.6918 8.29878 18.8142 8.56458C18.9367 8.83039 19.0001 9.11991 19 9.41294V18.4778C19 19.0121 18.7893 19.5245 18.4142 19.9023C18.0391 20.28 17.5304 20.4923 17 20.4923H3C2.46957 20.4923 1.96086 20.28 1.58579 19.9023C1.21071 19.5245 1 19.0121 1 18.4778V9.41294Z" stroke="white" stroke-width="2" stroke-linecap="round" stroke-linejoin="round"/>
</svg>
