<svg width="21" height="22" viewBox="0 0 21 22" fill="none" xmlns="http://www.w3.org/2000/svg">
<path d="M11 6.75311V10.782M11 14.8108H11.01M6.9 18.8396C8.80858 19.8258 11.0041 20.0929 13.0909 19.5928C15.1777 19.0928 17.0186 17.8585 18.2818 16.1123C19.545 14.3661 20.1474 12.223 19.9806 10.069C19.8137 7.91504 18.8886 5.89191 17.3718 4.3642C15.855 2.83648 13.8464 1.90465 11.7078 1.73661C9.56929 1.56857 7.44147 2.17538 5.70782 3.44769C3.97417 4.72 2.74869 6.57414 2.25222 8.67599C1.75575 10.7778 2.02094 12.9892 3 14.9115L1 20.8541L6.9 18.8396Z" stroke="white" stroke-width="2" stroke-linecap="round" stroke-linejoin="round"/>
</svg>
