<svg width="21" height="23" viewBox="0 0 21 23" fill="none" xmlns="http://www.w3.org/2000/svg">
<path d="M10.2376 1.76923H9.79758C9.26715 1.76923 8.75844 1.98146 8.38337 2.35924C8.00829 2.73701 7.79758 3.24939 7.79758 3.78365V3.96495C7.79722 4.3182 7.70464 4.66515 7.52912 4.97099C7.3536 5.27682 7.10132 5.5308 6.79758 5.70742L6.36758 5.95923C6.06354 6.13603 5.71865 6.22911 5.36758 6.22911C5.01651 6.22911 4.67162 6.13603 4.36758 5.95923L4.21758 5.87865C3.75864 5.612 3.21342 5.53967 2.70158 5.67752C2.18975 5.81537 1.75313 6.15214 1.48758 6.61391L1.26758 6.99665C1.00284 7.4589 0.931024 8.00806 1.06789 8.52358C1.20475 9.03911 1.53912 9.47887 1.99758 9.74634L2.14758 9.84706C2.44986 10.0228 2.7012 10.2752 2.87663 10.5791C3.05206 10.8831 3.14547 11.2279 3.14758 11.5795V12.0931C3.14898 12.4481 3.05723 12.7971 2.88162 13.1049C2.70602 13.4127 2.45279 13.6682 2.14758 13.8457L1.99758 13.9363C1.53912 14.2038 1.20475 14.6436 1.06789 15.1591C0.931024 15.6746 1.00284 16.2238 1.26758 16.686L1.48758 17.0688C1.75313 17.5305 2.18975 17.8673 2.70158 18.0052C3.21342 18.143 3.75864 18.0707 4.21758 17.804L4.36758 17.7235C4.67162 17.5467 5.01651 17.4536 5.36758 17.4536C5.71865 17.4536 6.06354 17.5467 6.36758 17.7235L6.79758 17.9753C7.10132 18.1519 7.3536 18.4059 7.52912 18.7117C7.70464 19.0175 7.79722 19.3645 7.79758 19.7177V19.899C7.79758 20.4333 8.00829 20.9457 8.38337 21.3234C8.75844 21.7012 9.26715 21.9135 9.79758 21.9135H10.2376C10.768 21.9135 11.2767 21.7012 11.6518 21.3234C12.0269 20.9457 12.2376 20.4333 12.2376 19.899V19.7177C12.2379 19.3645 12.3305 19.0175 12.506 18.7117C12.6816 18.4059 12.9338 18.1519 13.2376 17.9753L13.6676 17.7235C13.9716 17.5467 14.3165 17.4536 14.6676 17.4536C15.0187 17.4536 15.3635 17.5467 15.6676 17.7235L15.8176 17.804C16.2765 18.0707 16.8217 18.143 17.3336 18.0052C17.8454 17.8673 18.282 17.5305 18.5476 17.0688L18.7676 16.676C19.0323 16.2137 19.1041 15.6646 18.9673 15.149C18.8304 14.6335 18.496 14.1937 18.0376 13.9263L17.8876 13.8457C17.5824 13.6682 17.3291 13.4127 17.1535 13.1049C16.9779 12.7971 16.8862 12.4481 16.8876 12.0931V11.5895C16.8862 11.2346 16.9779 10.8855 17.1535 10.5778C17.3291 10.27 17.5824 10.0145 17.8876 9.83699L18.0376 9.74634C18.496 9.47887 18.8304 9.03911 18.9673 8.52358C19.1041 8.00806 19.0323 7.4589 18.7676 6.99665L18.5476 6.61391C18.282 6.15214 17.8454 5.81537 17.3336 5.67752C16.8217 5.53967 16.2765 5.612 15.8176 5.87865L15.6676 5.95923C15.3635 6.13603 15.0187 6.22911 14.6676 6.22911C14.3165 6.22911 13.9716 6.13603 13.6676 5.95923L13.2376 5.70742C12.9338 5.5308 12.6816 5.27682 12.506 4.97099C12.3305 4.66515 12.2379 4.3182 12.2376 3.96495V3.78365C12.2376 3.24939 12.0269 2.73701 11.6518 2.35924C11.2767 1.98146 10.768 1.76923 10.2376 1.76923Z" stroke="white" stroke-width="2" stroke-linecap="round" stroke-linejoin="round"/>
<path d="M10.0176 14.863C11.6744 14.863 13.0176 13.5101 13.0176 11.8413C13.0176 10.1725 11.6744 8.81971 10.0176 8.81971C8.36073 8.81971 7.01758 10.1725 7.01758 11.8413C7.01758 13.5101 8.36073 14.863 10.0176 14.863Z" stroke="white" stroke-width="2" stroke-linecap="round" stroke-linejoin="round"/>
</svg>
